<?xml version="1.0" encoding="utf-8"?>
<svg viewBox="0 0 500 500" xmlns="http://www.w3.org/2000/svg" xmlns:bx="https://boxy-svg.com">
  <defs>
    <bx:grid x="0" y="0" width="16" height="16"/>
  </defs>
  <rect style="stroke: rgb(0, 0, 0); stroke-width: 10px; fill: rgba(245, 245, 245, 0.33);" x="16" y="16" width="464" height="464" rx="15" ry="15"/>
  <path d="M 166.713 32.82 L 248.425 164.074 L 329.513 32.82 L 277.452 32.82 L 248.135 83.355 L 218.767 32.82 L 166.713 32.82 Z" fill="#35495E" style="">
    <title>Vue Logo</title>
  </path>
  <g transform="matrix(1.135183, -0.603588, 0.603588, 1.135183, -703.997314, 249.583801)" style="">
    <title>darth vader</title>
    <path d="M 698.378 363.097 L 698.378 400.672 L 703.987 400.672 L 703.987 412.002 L 698.378 412.002 L 698.378 434.662 L 650.34 434.662 L 650.34 412.002 L 644.482 412.002 L 644.482 400.672 L 650.34 400.672 L 650.34 383.925 L 698.378 363.097 Z M 693.671 531.56 L 655.675 531.56 L 655.675 522.881 L 693.671 522.881 L 693.671 531.56 Z M 688.99 512.906 L 688.99 444.562 L 698.378 444.562 L 698.378 512.906 L 688.99 512.906 Z M 661.207 444.562 L 661.207 512.906 L 650.34 512.906 L 650.34 444.562 L 661.207 444.562 Z M 670.1 444.562 L 680.13 444.562 L 680.13 512.906 L 670.1 512.906 L 670.1 444.562 Z" style="stroke: rgb(0, 0, 0);">
      <title>hilt</title>
    </path>
    <path d="M 661.207 371.32 L 688.99 359.779 L 680.13 174.629 C 680.13 174.629 680.13 168.608 675.184 168.55 C 670.1 168.49 670.1 174.629 670.1 174.629 L 661.207 371.32 Z" style="stroke-linecap: round; stroke-linejoin: round; stroke: rgb(226, 0, 0); fill: rgb(190, 0, 0);">
      <title>blade</title>
    </path>
  </g>
  <g transform="matrix(1.135183, 0.603588, -0.587704, 1.105308, -335.407623, -560.288391)" style="">
    <title>luke</title>
    <path d="M 691.191 372.861 L 691.191 379.694 L 701.263 379.694 L 701.263 386.966 L 696.179 386.966 L 696.179 414.912 L 655.854 414.912 L 655.854 386.966 L 650.403 386.966 L 650.403 379.694 L 661.853 379.694 L 661.853 372.861 L 691.191 372.861 Z M 696.179 530.98 L 691.191 530.98 L 691.191 541.361 L 661.853 541.361 L 661.853 530.98 L 655.854 530.98 L 655.854 456.281 L 696.179 456.281 L 696.179 530.98 Z M 693.896 422.909 L 693.896 431.701 L 658.417 431.701 L 658.417 422.909 L 693.896 422.909 Z M 693.896 439.749 L 693.896 448.284 L 658.417 448.284 L 658.417 439.749 L 693.896 439.749 Z" style="stroke: rgb(0, 0, 0);">
      <title>hilt</title>
    </path>
    <path d="M 661.236 363.189 L 688.994 363.097 L 680.13 174.629 C 680.13 174.629 680.13 168.608 675.184 168.55 C 670.1 168.49 670.1 174.629 670.1 174.629 L 661.236 363.189 Z" style="stroke-linecap: round; stroke-linejoin: round; fill: rgb(65, 184, 131); stroke: rgb(80, 254, 176);">
      <title>blade</title>
    </path>
  </g>
</svg>