<?xml version="1.0" encoding="utf-8"?>
<svg xmlns="http://www.w3.org/2000/svg" xmlns:bx="https://boxy-svg.com">
  <path d="M 2.828 0.731 C 11.541 0.731 20.709 -0.1 29.358 0.731 C 44.773 2.213 59.804 6.739 75.312 7.71 C 100.232 9.271 126.191 9.098 150.99 6.755 C 195.725 2.53 239.719 0.406 284.76 2.86 C 294.994 3.418 304.829 5.703 314.962 6.721 C 317.147 6.94 322.428 6.813 323.983 8.884 C 325.99 11.558 324.641 18.426 324.641 21.59 C 324.641 34.889 322.032 49.182 320.395 62.437 C 318.79 75.425 323.405 89.351 324.273 102.188 C 324.851 110.745 325.405 117.42 317.441 122.912 C 310.881 127.436 301.971 127.316 294.391 127.316 C 285.676 127.316 276.683 127.938 267.987 127.316 C 260.713 126.796 253.787 123.722 246.425 123.276 C 240.113 122.894 232.888 120.44 226.812 120.957 C 216.639 121.823 206.825 124.226 196.354 124.226 C 176.171 124.226 156.932 122.397 137.02 123.631 C 126.478 124.284 115.272 119.334 104.958 121.689 C 91.481 124.766 77.686 127.71 63.663 126.457 C 53.883 125.583 43.956 122.338 34.284 121.134 C 27.958 120.347 11.975 120.598 6.964 115.563 C 4.776 113.365 4.32 107.317 3.683 104.446 C 1.964 96.698 0 90.496 0 82.453 C 0 63.228 3.049 43.995 5.015 24.855 C 5.818 17.039 3.469 7.874 3.469 0" style="fill: rgb(157, 67, 186); stroke-width: 2px;" bx:origin="0 0">
    <title>Background</title>
  </path>
  <path d="M 325.307 16.252 C 309.627 16.252 294.247 14.144 278.694 12.216 C 270.747 11.231 264.09 8.902 255.718 9.551 C 230.651 11.493 205.759 14.318 180.514 16.463 C 170.274 17.332 160.464 16.655 150.383 18.019 C 132.065 20.499 110.569 17.012 91.98 17.012 C 72.262 17.012 54.933 9.035 35.075 9.035 C 31.523 9.035 18.884 5.928 17.008 9.681 C 11.789 20.119 12.417 33.54 10.427 45.452 C 8.09 59.449 5.116 77.119 7.537 91.524 C 8.953 99.95 12.521 109.18 12.521 116.86" style="fill: none; stroke-width: 15px; stroke: rgb(189, 74, 227);" bx:origin="-0.020826 -0.071789">
    <title>Shadow</title>
  </path>
  <path d="M 2.828 0.731 C 11.541 0.731 20.709 -0.1 29.357 0.731 C 44.773 2.213 59.804 6.739 75.312 7.71 C 100.232 9.271 126.191 9.098 150.99 6.755 C 195.725 2.53 239.719 0.406 284.76 2.86 C 294.994 3.418 304.829 5.703 314.962 6.721 C 317.147 6.94 322.428 6.813 323.983 8.884 C 325.99 11.558 324.641 18.426 324.641 21.59 C 324.641 34.889 322.032 49.182 320.395 62.437 C 318.79 75.425 323.405 89.351 324.273 102.188 C 324.851 110.745 325.405 117.42 317.441 122.912 C 310.881 127.436 301.971 127.316 294.391 127.316 C 285.676 127.316 276.683 127.938 267.987 127.316 C 260.713 126.796 253.787 123.722 246.425 123.276 C 240.113 122.894 232.888 120.44 226.811 120.957 C 216.639 121.823 206.825 124.226 196.354 124.226 C 176.17 124.226 156.932 122.397 137.02 123.631 C 126.477 124.284 115.272 119.334 104.958 121.689 C 91.481 124.766 77.686 127.71 63.663 126.457 C 53.883 125.583 43.956 122.338 34.284 121.134 C 27.958 120.347 11.975 120.598 6.964 115.563 C 4.776 113.365 4.32 107.317 3.683 104.446 C 1.963 96.698 0 90.496 0 82.453 C 0 63.228 3.049 43.995 5.015 24.855 C 5.818 17.039 3.469 7.874 3.469 0" style="stroke-width: 2px; stroke: rgb(0, 0, 0); fill: none;" bx:origin="0 0">
    <title>Outline</title>
  </path>
</svg>